<?xml version="1.0" encoding="iso-8859-1"?>
<!-- Generator: Adobe Illustrator 19.0.0, SVG Export Plug-In . SVG Version: 6.00 Build 0)  -->
<svg version="1.1" id="Capa_1" xmlns="http://www.w3.org/2000/svg" xmlns:xlink="http://www.w3.org/1999/xlink" x="0px" y="0px"
	 viewBox="0 0 512.038 512.038" style="enable-background:new 0 0 512.038 512.038;" xml:space="preserve">
<path style="fill:#CF4737;" d="M69.747,184.663h19.346l0,0v70.348l0,0H69.747c-8.741,0-15.828-7.088-15.828-15.828v-38.691
	C53.918,191.751,61.006,184.663,69.747,184.663z"/>
<path style="fill:#3E8CC7;" d="M238.581,105.522h-35.174c-19.425,0-35.174,15.749-35.174,35.174v158.283h105.522V140.696
	C273.755,121.271,258.006,105.522,238.581,105.522z"/>
<path style="fill:#FEC9A3;" d="M264.962,17.587l-69.24,8.793c-0.739,2.875-1.108,5.83-1.108,8.793v35.174
	c0,19.425,15.749,35.174,35.174,35.174s35.174-15.749,35.174-35.174V35.174C265.322,29.317,265.322,23.443,264.962,17.587z"/>
<g>
	<path style="fill:#75462E;" d="M194.614,26.38v35.174l35.174-35.174h26.38c14.571,0,26.38-11.81,26.38-26.38h-61.554
		C206.424,0,194.614,11.81,194.614,26.38L194.614,26.38"/>
	<path style="fill:#75462E;" d="M273.755,298.978H168.233v87.935l-79.141,35.174l17.587,35.174l83.872-34.945
		c13.111-5.461,21.65-18.273,21.65-32.474v-39.043c0-9.189,7.448-16.646,16.646-16.646c6.015,0,11.563,3.245,14.509,8.486
		l74.366,132.21l35.174-17.587L273.755,298.978z"/>
</g>
<g>
	<path style="fill:#3E8CC7;" d="M84.229,500.296l-30.311-60.622l35.174-17.587l31.243,62.486c2.471,4.951,2.471,10.772,0,15.723l0,0
		c-2.981,5.962-9.075,9.726-15.732,9.726h-4.643C93.295,510.022,87.202,506.258,84.229,500.296z"/>
	<path style="fill:#3E8CC7;" d="M388.07,483.641l-52.761,26.38l-17.587-35.174l52.761-26.38c9.717-4.854,21.526-0.923,26.38,8.793
		l0,0l0,0C401.718,466.977,397.778,478.787,388.07,483.641L388.07,483.641z"/>
</g>
<path style="fill:#FEC9A3;" d="M394.331,160.771c-7.211-9.611-20.858-11.563-30.469-4.353c-0.827,0.616-1.6,1.293-2.33,2.022
	l-43.809,43.809l-43.967-52.761v70.348l3.843,5.76c14.193,21.271,42.939,27.022,64.219,12.83c2.541-1.697,4.907-3.632,7.061-5.795
	l43.431-43.431C399.959,181.541,400.821,169.433,394.331,160.771z"/>
<g>
	<path style="fill:#75462E;" d="M198.58,96.728h-65.52v17.587h65.52c12.715,0.009,23.013,10.324,23.004,23.039
		c0,3.473-0.791,6.903-2.304,10.025l-55.267,113.788l-22.16,2.638v17.587l25.061-3.614c5.777-0.835,10.754-4.476,13.305-9.726
		l54.845-112.979c9.796-20.172,1.381-44.469-18.792-54.265C210.759,98.126,204.709,96.737,198.58,96.728z"/>
	<path style="fill:#75462E;" d="M89.092,263.804c0,14.571,11.81,26.38,26.38,26.38h26.38c14.571,0,26.38-11.81,26.38-26.38v-8.793
		H89.092C89.092,255.011,89.092,263.804,89.092,263.804z"/>
</g>
<path style="fill:#DE4C3C;" d="M166.739,123.109c-3.728-10.543-13.7-17.596-24.886-17.587h-26.38c-14.571,0-26.38,11.81-26.38,26.38
	v123.109h79.141V131.902L166.739,123.109z"/>
<rect x="396.795" y="126.864" transform="matrix(-0.974 0.2265 -0.2265 -0.974 873.3374 541.7469)" style="fill:#75462E;" width="17.587" height="388.228"/>
<path style="fill:#3E8CC7;" d="M128.663,26.38c-21.852,0-39.571,17.719-39.571,39.571s17.719,39.571,39.571,39.571
	s39.571-17.719,39.571-39.571S150.515,26.38,128.663,26.38z M128.663,79.141c-7.281,0-13.19-5.909-13.19-13.19
	s5.909-13.19,13.19-13.19c7.281,0,13.19,5.909,13.19,13.19S135.944,79.141,128.663,79.141z"/>
<path style="fill:#FEC9A3;" d="M228.029,145.734l-51.002,31.094l59.796,43.009c10.095,6.753,12.803,20.401,6.05,30.496
	c-0.211,0.317-0.431,0.624-0.66,0.932l0,0c-7,9.312-20.04,11.546-29.74,5.1l-73.61-52.189c-9.128-6.103-14.606-16.365-14.597-27.348
	l0,0c0-10.983,5.487-21.245,14.632-27.339l64.817-40.283c9.699-6.446,22.74-4.212,29.74,5.1l0,0
	c7.255,9.734,5.25,23.505-4.485,30.768C228.662,145.303,228.346,145.523,228.029,145.734z"/>
<g>
</g>
<g>
</g>
<g>
</g>
<g>
</g>
<g>
</g>
<g>
</g>
<g>
</g>
<g>
</g>
<g>
</g>
<g>
</g>
<g>
</g>
<g>
</g>
<g>
</g>
<g>
</g>
<g>
</g>
</svg>
