<?xml version="1.0" encoding="iso-8859-1"?>
<!-- Generator: Adobe Illustrator 18.0.0, SVG Export Plug-In . SVG Version: 6.00 Build 0)  -->
<!DOCTYPE svg PUBLIC "-//W3C//DTD SVG 1.1//EN" "http://www.w3.org/Graphics/SVG/1.1/DTD/svg11.dtd">
<svg fill="#FF4500" version="1.1" id="Capa_1" xmlns="http://www.w3.org/2000/svg" xmlns:xlink="http://www.w3.org/1999/xlink" x="0px" y="0px"
	 viewBox="0 0 496.55 496.55" style="enable-background:new 0 0 496.55 496.55;" xml:space="preserve">
<g id="XMLID_546_">
	<path id="XMLID_547_" d="M465.706,138.658c23.714-11.637,33.517-40.281,21.881-63.985c-11.608-23.724-40.261-33.518-63.976-21.891
		c-23.704,11.618-33.5,40.264-21.881,63.968C413.349,140.464,441.992,150.267,465.706,138.658z"/>
	<path id="XMLID_548_" d="M335.949,200.295c-3.816,18.598-2.142,35.249,16.388,40.348c0,0,85.241,23.413,85.277,23.423l0.048,0.01
		c13.845,3.79,28.017-4.359,31.786-18.092c3.771-13.752-4.293-27.971-18.045-31.768c-0.017-0.01-0.027-0.01-0.046-0.02
		l-43.471-11.938l-17.185-11.468c5.202-25.304,3.35-16.323,7.98-38.823c2.441-11.851-6.643-27.005-11.965-37.875
		c-10.019-20.421-34.678-28.86-55.089-18.85l-28.549,13.996l45.537,30.411c-1.047,3.611-3.517,16.108-4.339,20.132L143.168,25.515
		c-8.774-5.895-20.683-3.518-26.566,5.293c-5.876,8.793-3.508,20.693,5.293,26.567L335.949,200.295z"/>
	<path id="XMLID_549_" d="M493.827,424.91c-5.416-9.073-17.157-12.02-26.278-6.594l-26.379,15.781l-174.501-60.056l82.283-69.319
		c15.64-13.161,14.836-37.625-1.749-49.719l-46.043-33.556l16.53-8.1l1.908-0.937l-96.1-64.163l-0.019,0.009
		c-16.044,7.867-26.25,22.78-28.926,39.167c-3.32,20.226,5.136,37.822,24.256,52.237l58.571,42.685l-79.748,67.934l-172.23-59.28
		c-10.028-3.471-20.917,1.86-24.351,11.871c-3.452,10.01,1.871,20.908,11.871,24.359l424.195,145.998
		c2.031,0.702,4.146,1.048,6.241,1.048c3.424,0,6.829-0.917,9.842-2.723l34.032-20.365
		C496.306,445.761,499.262,433.993,493.827,424.91z"/>
</g>
<g>
</g>
<g>
</g>
<g>
</g>
<g>
</g>
<g>
</g>
<g>
</g>
<g>
</g>
<g>
</g>
<g>
</g>
<g>
</g>
<g>
</g>
<g>
</g>
<g>
</g>
<g>
</g>
<g>
</g>
</svg>
